<?xml version="1.0" encoding="UTF-8"?>
<svg width="80px" height="80px" viewBox="0 0 80 80" version="1.1" xmlns="http://www.w3.org/2000/svg" xmlns:xlink="http://www.w3.org/1999/xlink">
    <path d="M48.631728,49.5459415 L45.0961941,53.0814755 L43.6812734,51.667969 L37.3180195,58.0312229 C35.7559223,59.5933201 33.2232624,59.5933201 31.6611652,58.0312229 L30.2469517,56.6184236 L23.1758839,63.6880772 L16.8119228,57.3241161 L23.8829906,50.2544625 L22.4687771,48.8388348 C20.9066799,47.2767376 20.9066799,44.7440777 22.4687771,43.1819805 L28.832031,36.8187266 L27.4185245,35.4038059 L30.9540585,31.868272 L48.631728,49.5459415 Z M64.1880772,22.6758839 L57.1170094,29.7469517 L58.5312229,31.1611652 C60.0933201,32.7232624 60.0933201,35.2559223 58.5312229,36.8180195 L52.1672619,43.1819805 L53.5814755,44.5961941 L50.0459415,48.131728 L32.368272,30.4540585 L35.9038059,26.9185245 L37.3180195,28.3327381 L43.6819805,21.9687771 C45.2440777,20.4066799 47.7767376,20.4066799 49.3388348,21.9687771 L50.7530483,23.3829906 L57.8241161,16.3119228 L64.1880772,22.6758839 Z" id="connect" fill="#FFFFFF" fill-rule="nonzero"></path>
</svg>