<?xml version="1.0" encoding="UTF-8"?>
<svg width="80px" height="80px" viewBox="0 0 80 80" version="1.1" xmlns="http://www.w3.org/2000/svg" xmlns:xlink="http://www.w3.org/1999/xlink">
    <path d="M46.5104076,51.6672619 L42.9748737,55.2027958 L41.5606602,53.7885822 L35.1966991,60.1525433 C33.634602,61.7146404 31.1019421,61.7146404 29.5398449,60.1525433 L28.1256313,58.7383297 L23.1758839,63.6880772 L16.8119228,57.3241161 L21.7616703,52.3743687 L20.3474567,50.9601551 C18.7853596,49.3980579 18.7853596,46.865398 20.3474567,45.3033009 L26.7114178,38.9393398 L25.2972042,37.5251263 L28.8327381,33.9895924 L46.5104076,51.6672619 Z M64.1880772,22.6758839 L59.2383297,27.6256313 L60.6525433,29.0398449 C62.2146404,30.6019421 62.2146404,33.134602 60.6525433,34.6966991 L54.2885822,41.0606602 L55.7027958,42.4748737 L52.1672619,46.0104076 L47.9239141,41.7670598 L44.3890873,45.3033009 L41.5606602,42.4748737 L45.095487,38.9386327 L41.5599531,35.4030988 L38.0251263,38.9393398 L35.1966991,36.1109127 L38.7315259,32.5746717 L34.4895924,28.3327381 L38.0251263,24.7972042 L39.4393398,26.2114178 L45.8033009,19.8474567 C47.365398,18.2853596 49.8980579,18.2853596 51.4601551,19.8474567 L52.8743687,21.2616703 L57.8241161,16.3119228 L64.1880772,22.6758839 Z" id="disconnect" fill="#FFFFFF" fill-rule="nonzero"></path>
</svg>